<?xml version="1.0" standalone="no"?>
<!DOCTYPE svg PUBLIC "-//W3C//DTD SVG 20010904//EN"
 "http://www.w3.org/TR/2001/REC-SVG-20010904/DTD/svg10.dtd">
<svg version="1.0" xmlns="http://www.w3.org/2000/svg"
 width="400.000000pt" height="400.000000pt" viewBox="0 0 400.000000 400.000000"
 preserveAspectRatio="xMidYMid meet">
<metadata>
Created by potrace 1.16, written by Peter Selinger 2001-2019
</metadata>
<g transform="translate(0.000000,400.000000) scale(0.100000,-0.100000)"
fill="#000000" stroke="none">
<path d="M1323 3956 c-24 -24 -43 -48 -43 -54 0 -7 -7 -12 -15 -12 -8 0 -15
-4 -15 -10 0 -5 -7 -10 -15 -10 -8 0 -15 -5 -15 -11 0 -6 -7 -9 -14 -6 -10 4
-13 1 -9 -9 3 -7 0 -14 -7 -14 -13 0 -57 -31 -102 -73 -28 -25 -36 -28 -77
-22 -69 9 -120 -21 -121 -72 0 -15 -7 -23 -22 -25 -15 -2 -22 -9 -22 -21 2
-16 -8 -22 -29 -18 -5 1 -6 -3 -2 -9 11 -18 14 -51 4 -45 -5 4 -6 11 -3 17 5
7 2 8 -7 2 -8 -5 -21 -7 -31 -6 -9 2 -19 -2 -23 -8 -3 -5 -1 -10 5 -10 7 0 5
-6 -4 -15 -10 -11 -24 -13 -42 -9 -19 5 -25 4 -20 -5 7 -11 -5 -15 -31 -12 -7
1 -13 -5 -13 -14 0 -9 -4 -14 -10 -10 -5 3 -7 12 -3 21 4 12 0 14 -23 8 -16
-4 -31 -11 -34 -15 -3 -4 -17 -10 -32 -14 l-28 -7 23 -20 22 -19 -22 6 c-17 5
-23 2 -23 -9 0 -18 -15 -21 -25 -6 -11 18 -24 11 -31 -16 -5 -20 -12 -25 -33
-22 -18 2 -26 -2 -26 -12 0 -8 -5 -18 -12 -23 -7 -4 -9 -15 -6 -24 5 -13 2
-15 -17 -10 -13 3 -28 0 -37 -9 -8 -8 -11 -14 -7 -14 5 0 3 -5 -4 -12 -7 -7
-12 -20 -12 -30 0 -9 -8 -22 -17 -27 -10 -6 -12 -11 -5 -11 6 0 12 -5 12 -10
0 -14 -46 -60 -60 -60 -6 0 -9 -4 -5 -10 8 -13 -5 -61 -15 -55 -14 8 -70 -55
-70 -78 -1 -29 -21 -55 -40 -49 -12 4 -13 2 -2 -9 20 -22 14 -31 -17 -24 -28
6 -29 4 -36 -35 -7 -40 -37 -85 -49 -72 -3 3 -6 -91 -6 -208 0 -167 3 -211 12
-202 19 19 73 14 93 -8 13 -14 14 -20 5 -20 -9 0 -5 -9 10 -25 21 -23 50 -28
66 -12 11 11 26 8 19 -3 -4 -7 8 -8 37 -4 41 7 42 7 28 -12 -14 -17 -14 -18 2
-6 9 7 27 10 40 7 28 -7 54 17 62 58 6 32 6 32 -44 7 -22 -11 -48 -20 -59 -20
-11 0 -21 -3 -24 -7 -2 -5 -2 -1 1 7 2 8 5 20 5 25 0 6 15 11 34 11 18 1 42 2
53 3 10 0 28 11 40 23 11 12 23 19 26 15 4 -3 15 -2 26 4 18 10 18 12 -12 41
l-32 30 -24 -23 c-14 -13 -39 -23 -61 -25 -21 -1 -42 -2 -46 -3 -4 -1 -3 -10
3 -21 7 -14 7 -20 0 -20 -5 0 -10 7 -10 15 0 8 -7 15 -16 15 -8 0 -12 5 -9 10
4 6 9 8 13 6 4 -2 16 2 27 10 10 8 15 14 9 14 -10 0 32 26 58 36 12 4 16 14
12 33 -4 21 1 30 26 46 17 11 37 19 45 17 8 -2 15 2 15 8 0 17 33 48 63 59 15
6 32 22 39 36 14 31 22 31 45 2 18 -22 93 -71 93 -61 0 14 -62 84 -70 79 -5
-3 -13 10 -20 29 -10 31 -8 39 15 76 33 52 50 58 81 29 24 -23 24 -23 4 -31
-11 -4 -20 -14 -20 -23 0 -8 -6 -15 -14 -15 -8 0 -17 -4 -20 -8 -12 -20 36 -4
50 16 8 12 19 22 25 22 17 0 9 -31 -17 -65 -23 -31 -24 -36 -12 -62 11 -23 20
-28 51 -30 30 -1 41 4 57 27 11 15 20 40 20 54 0 14 2 26 5 26 16 0 55 -35 55
-49 -1 -17 -23 -51 -34 -51 -3 0 -6 8 -6 18 0 13 -2 14 -9 4 -4 -8 -12 -14
-17 -15 -5 -1 -8 -15 -6 -31 1 -16 -4 -39 -13 -52 -19 -29 -19 -35 -1 -28 8 3
31 -5 51 -18 38 -24 41 -33 46 -163 1 -21 -39 -147 -72 -227 -10 -26 -19 -58
-19 -71 0 -14 -7 -28 -16 -31 -8 -3 -13 -10 -10 -15 4 -5 1 -11 -6 -13 -18 -6
-68 3 -68 13 0 9 22 13 48 10 6 -1 12 2 12 7 0 12 -24 22 -51 22 -11 0 -30 10
-42 21 l-22 22 23 -6 c18 -4 22 -2 18 9 -3 8 0 14 7 14 8 0 6 4 -3 10 -12 8
-12 10 -1 10 8 0 11 3 8 6 -4 4 -14 1 -24 -7 -15 -12 -16 -12 -10 4 3 9 2 17
-3 17 -6 0 -10 -5 -10 -11 0 -7 -10 -9 -25 -5 -14 4 -25 3 -25 -2 0 -10 -46
-10 -56 1 -5 4 3 11 16 15 21 5 16 8 -25 13 -27 3 -57 2 -65 -3 -10 -6 -7 -7
10 -3 22 5 23 5 6 -6 -13 -8 -24 -8 -43 0 -32 15 -46 14 -40 -3 6 -14 -36 -32
-52 -22 -4 3 -28 -1 -54 -9 -35 -10 -47 -11 -51 -2 -2 7 -5 6 -5 -4 -1 -8 -33
-32 -76 -54 -42 -21 -74 -43 -72 -49 2 -6 11 -10 21 -8 30 5 16 -17 -19 -29
-19 -7 -35 -19 -35 -26 0 -7 -5 -13 -11 -13 -7 0 -9 10 -5 25 5 18 2 25 -9 25
-13 0 -15 -53 -14 -425 0 -269 3 -423 9 -420 6 4 10 12 10 20 0 7 7 15 15 19
10 3 15 -1 15 -12 0 -15 2 -15 10 -2 7 11 10 7 10 -17 0 -34 -8 -41 -27 -22
-6 6 -16 8 -22 5 -20 -13 -11 -21 23 -23 30 -3 34 0 40 28 3 17 1 39 -4 50 -8
15 -7 19 4 19 8 0 17 6 19 13 3 6 6 2 6 -10 1 -12 -3 -23 -8 -25 -5 -2 -5 -13
0 -26 8 -22 10 -22 25 -7 12 12 13 19 4 30 -9 11 -8 14 7 14 10 -1 27 2 38 6
14 4 24 0 33 -15 15 -24 9 -26 -12 -4 -15 14 -18 14 -35 -8 -13 -15 -16 -28
-10 -39 11 -20 0 -32 -17 -18 -18 14 -28 -6 -14 -30 5 -11 10 -29 10 -40 0
-23 27 -41 49 -33 10 3 12 0 8 -12 -16 -39 -19 -51 -9 -37 6 8 17 11 26 8 14
-6 15 -3 6 13 -9 17 -8 20 10 20 11 0 23 -7 26 -15 4 -8 14 -15 23 -15 13 0
14 -2 1 -10 -12 -7 -12 -13 -1 -33 7 -14 11 -30 7 -35 -3 -6 0 -13 6 -15 7 -3
3 -6 -9 -6 -14 -1 -23 5 -23 13 0 18 -40 17 -58 -1 -8 -8 -11 -20 -8 -28 3 -8
1 -15 -5 -15 -7 0 -9 -10 -5 -25 5 -18 3 -24 -6 -23 -9 2 -12 -7 -10 -27 1
-16 -1 -25 -5 -19 -21 28 -53 39 -101 36 l-52 -4 1 -119 c0 -110 1 -119 19
-119 29 0 65 -19 79 -42 12 -20 11 -20 -43 -14 -47 6 -56 5 -56 -8 0 -14 12
-20 33 -17 4 0 7 -4 7 -10 0 -6 -9 -8 -20 -4 -15 5 -18 3 -14 -9 3 -9 12 -16
19 -16 7 0 16 -6 18 -12 3 -7 6 0 6 15 1 25 3 27 24 16 18 -9 20 -9 9 2 -15
17 -15 25 1 26 6 1 27 6 45 12 31 9 34 8 49 -25 9 -19 19 -34 22 -33 3 0 19
16 35 35 20 24 26 38 19 45 -7 7 -13 2 -17 -15 -4 -17 -13 -26 -26 -26 -30 0
-24 15 20 53 22 19 40 37 40 40 0 14 -22 6 -48 -18 -31 -29 -44 -15 -16 17 19
20 19 21 -6 13 -20 -6 -23 -5 -13 5 6 7 22 14 36 15 13 2 35 14 49 28 22 22
24 27 9 32 -14 6 -13 9 5 24 18 14 20 21 11 37 -6 10 -12 39 -13 62 -3 47 -18
72 -42 72 -8 0 -12 3 -8 7 8 8 14 10 47 12 16 1 20 6 16 22 -4 15 -2 19 9 15
11 -4 13 1 8 22 -8 33 -24 65 -37 73 -6 4 -6 9 1 13 5 3 18 -6 28 -21 11 -14
27 -34 36 -45 15 -15 15 -18 3 -18 -20 0 -19 -17 1 -28 13 -7 14 -10 0 -21
-13 -11 -12 -16 6 -47 18 -30 45 -54 62 -54 13 0 4 27 -14 43 -23 19 -26 37
-7 37 6 1 1 7 -13 15 -15 9 -19 14 -10 15 13 0 13 1 0 10 -13 9 -13 11 0 19 8
5 18 7 22 5 4 -3 8 -2 8 1 0 3 -13 11 -29 16 -16 6 -31 19 -34 30 -6 24 14 25
48 3 14 -9 30 -12 37 -8 11 6 11 5 0 -8 -14 -17 1 -35 68 -82 67 -48 110 -68
110 -52 0 19 26 27 88 25 38 -2 57 -8 77 -27 14 -13 29 -21 32 -18 11 11 -71
76 -89 70 -10 -3 -21 3 -28 16 -6 11 -21 20 -35 20 -13 0 -27 4 -30 10 -4 6 6
10 22 10 15 0 37 7 47 15 20 15 20 15 0 29 -10 8 -16 17 -13 21 4 3 27 -12 50
-34 75 -69 80 -73 97 -66 14 5 14 7 2 15 -11 7 -11 10 -2 10 19 0 66 -50 56
-60 -5 -5 -22 -11 -39 -13 -18 -3 -11 -5 17 -4 25 1 44 -1 41 -5 -2 -5 2 -8 9
-8 21 0 118 -71 118 -86 0 -8 5 -14 10 -14 21 0 9 22 -32 60 -24 22 -48 40
-54 40 -6 0 -28 21 -48 47 -34 44 -35 47 -19 65 13 15 13 18 2 18 -24 0 -80
59 -84 88 -5 41 -31 96 -39 83 -4 -6 -4 -16 -1 -21 3 -6 0 -17 -8 -25 -13 -12
-18 -12 -37 5 -19 16 -20 20 -7 20 10 0 17 2 17 5 0 5 -25 37 -48 60 -9 10 -9
16 -1 21 8 4 7 9 -2 16 -11 8 -10 9 2 5 9 -3 22 0 28 6 15 15 61 -11 61 -35 0
-11 5 -16 10 -13 16 10 50 -5 50 -21 0 -12 34 -33 60 -38 3 -1 11 -5 18 -9 6
-5 18 -5 25 -1 7 5 7 1 -3 -12 -8 -10 -10 -16 -6 -12 5 4 18 -3 30 -15 36 -40
136 -120 136 -109 0 5 -28 34 -62 63 -79 67 -82 73 -56 79 12 3 23 10 25 16 3
9 -120 144 -133 144 -11 0 -34 29 -44 56 -10 24 -7 31 15 53 l26 26 -3 -37
c-1 -20 -5 -35 -9 -32 -4 2 -5 14 -1 26 3 14 2 19 -6 14 -17 -10 -15 -30 7
-55 16 -18 24 -20 38 -13 16 10 16 11 2 17 -9 3 -16 17 -16 30 0 14 4 22 9 19
5 -3 7 -12 4 -20 -3 -8 0 -11 9 -7 15 5 37 -34 28 -49 -2 -5 1 -8 8 -8 9 0 9
-3 0 -14 -9 -10 -8 -15 2 -19 8 -3 17 -20 21 -37 4 -22 10 -30 20 -27 8 3 19
0 25 -7 13 -16 61 -9 61 9 0 6 -9 20 -19 29 -11 10 -22 28 -25 41 -4 16 -16
25 -43 32 -34 8 -38 12 -35 38 5 36 29 64 38 42 3 -8 22 -18 42 -22 20 -4 48
-16 62 -28 15 -12 39 -31 55 -42 15 -11 35 -28 44 -37 8 -10 19 -18 24 -18 5
0 18 -12 29 -26 11 -14 26 -23 34 -20 8 3 11 0 7 -10 -4 -10 0 -12 13 -7 11 4
15 3 11 -4 -4 -6 0 -16 9 -24 12 -10 18 -9 32 5 16 16 16 18 -3 32 -40 30
-181 150 -215 184 -19 19 -36 46 -37 60 -1 14 -5 60 -9 103 -8 89 -1 95 50 44
19 -19 41 -37 49 -40 9 -3 24 -19 34 -34 28 -43 75 -93 88 -93 30 0 114 44
125 66 8 13 21 24 29 24 53 0 242 -177 277 -259 8 -18 18 -29 26 -26 7 3 49
-22 93 -55 44 -33 107 -74 140 -91 33 -18 81 -51 106 -74 25 -24 61 -51 80
-60 88 -46 173 -129 208 -204 17 -35 34 -55 65 -71 85 -47 296 -191 296 -202
0 -23 53 -68 80 -68 26 0 28 -4 44 -86 9 -47 14 -89 11 -95 -4 -5 -2 -8 3 -7
6 2 24 -16 41 -39 26 -36 37 -43 65 -43 52 0 96 46 97 102 0 39 1 41 10 18 6
-14 11 -44 11 -67 1 -47 -17 -75 -65 -100 -16 -8 -27 -16 -25 -19 3 -2 22 5
44 16 l39 19 48 -49 c77 -79 74 -61 -5 25 -19 21 -26 37 -22 53 4 12 11 22 16
22 5 0 6 4 3 10 -3 5 1 21 10 34 13 20 14 29 5 46 -7 12 -10 33 -7 46 3 15 -1
28 -10 33 -12 6 -13 12 -4 30 7 12 9 27 5 34 -4 6 13 -6 38 -28 25 -22 47 -46
47 -52 2 -22 15 -14 50 28 27 33 29 39 12 30 -12 -7 -25 -19 -28 -27 -3 -8
-11 -14 -18 -14 -17 0 -101 102 -97 118 2 8 -1 11 -7 8 -18 -12 22 59 53 92
28 30 35 32 77 27 99 -12 184 33 177 94 -5 44 -82 87 -170 96 -98 10 -114 17
-138 65 -13 26 -27 40 -40 40 -12 0 -30 16 -46 40 -14 21 -42 51 -61 66 -19
15 -32 32 -29 40 3 8 0 11 -8 8 -8 -3 -24 9 -37 28 -21 29 -70 86 -121 140
-10 10 -18 25 -18 33 0 8 -19 24 -42 35 -60 28 -67 35 -123 120 -47 72 -139
184 -271 332 -35 39 -67 86 -75 111 -7 23 -23 50 -34 59 -22 19 -29 22 -129
68 l-68 31 7 37 c5 20 9 60 11 87 1 28 6 78 9 112 7 54 5 65 -15 93 -12 17
-45 42 -74 54 -57 26 -91 55 -101 86 -3 11 -9 20 -13 20 -4 1 -20 11 -36 25
-26 21 -28 25 -15 41 13 16 12 16 -10 4 -23 -12 5 18 83 89 l26 25 34 -37 c38
-42 42 -43 68 -21 17 16 16 19 -18 56 -19 22 -33 45 -31 51 5 17 165 13 305
-8 57 -8 62 -14 31 -34 -17 -10 -19 -15 -9 -21 9 -6 20 -1 32 12 18 21 18 21
91 -53 40 -41 83 -81 95 -89 12 -8 25 -22 28 -32 3 -10 12 -18 20 -18 8 0 12
-4 9 -10 -3 -5 -1 -10 5 -10 17 0 23 28 8 43 -17 17 -71 83 -138 167 -55 69
-90 129 -90 155 0 8 -5 15 -12 15 -9 0 -9 3 0 12 19 19 15 30 -24 71 -30 31
-34 40 -24 53 11 12 10 13 -2 9 -29 -11 -31 28 -3 52 14 13 24 23 21 23 -3 0
9 14 26 32 l31 32 45 -50 c58 -64 68 -77 127 -154 28 -36 62 -78 77 -95 16
-16 28 -34 28 -38 0 -23 79 45 80 69 0 16 -35 45 -44 37 -4 -4 -4 -1 -1 8 3 8
-4 25 -16 37 -12 13 -18 30 -15 39 4 10 -18 47 -63 104 -39 48 -76 98 -83 111
-7 13 -17 26 -22 29 -5 4 49 63 119 130 150 145 290 288 312 318 14 20 11 26
-36 89 -66 89 -89 111 -101 92 -7 -11 -11 -11 -23 -1 -27 22 -71 9 -85 -24 -8
-16 -18 -39 -24 -49 -8 -15 -7 -22 6 -31 17 -13 11 -25 -11 -25 -8 0 -12 4 -9
9 3 5 -5 11 -17 13 -30 6 -81 -41 -71 -66 4 -11 1 -16 -10 -16 -9 0 -16 -4
-16 -10 0 -5 7 -10 15 -10 8 0 15 -4 15 -10 0 -5 -6 -10 -14 -10 -8 0 -17 -6
-19 -12 -4 -10 -8 -9 -17 2 -9 12 -10 10 -9 -10 1 -14 1 -34 1 -44 -2 -18 -3
-18 -21 -2 -11 10 -30 16 -43 14 l-25 -3 15 -73 c13 -68 13 -75 -3 -90 -13
-13 -19 -14 -22 -4 -4 9 -9 10 -18 2 -9 -8 -21 -3 -45 20 -32 30 -47 30 -71
-3 -3 -5 -36 29 -71 75 -36 46 -74 93 -84 105 -11 12 -44 54 -74 94 -30 39
-80 102 -111 138 -89 106 -120 152 -113 173 5 17 -6 18 -203 18 l-208 -1 -42
-43z m428 -88 c8 -7 35 -40 59 -73 25 -33 79 -103 120 -155 198 -248 230 -290
223 -290 -4 0 -3 -4 4 -8 14 -9 -10 -72 -27 -72 -6 0 -8 5 -5 10 11 18 -1 11
-26 -16 l-24 -26 28 7 c17 5 27 3 27 -4 0 -6 -7 -11 -15 -11 -8 0 -15 -4 -15
-9 0 -5 -7 -12 -16 -15 -8 -3 -12 -2 -9 4 3 6 -5 10 -18 10 -13 0 -32 9 -41
19 -17 18 -19 17 -74 -38 -60 -59 -201 -186 -234 -209 -10 -8 -25 -11 -32 -9
-8 3 -46 43 -86 89 -40 46 -87 99 -104 118 -118 128 -256 292 -256 304 0 7 9
16 20 19 12 3 20 14 20 26 0 12 8 25 18 28 9 4 23 13 30 20 7 7 24 13 37 13
31 0 93 37 100 59 3 10 17 23 30 29 14 6 25 18 25 26 0 23 29 46 58 46 27 0
71 32 102 75 14 18 47 43 61 44 3 1 12 -5 20 -11z m-469 -520 c76 -86 158
-179 207 -233 102 -113 153 -175 149 -183 -1 -5 -40 -44 -84 -86 -63 -58 -88
-76 -111 -76 -36 0 -163 -35 -219 -60 -39 -18 -47 -19 -95 -7 -53 14 -89 44
-89 76 0 9 -9 27 -20 41 -11 14 -20 33 -20 42 0 24 -64 86 -98 95 -16 5 -42
20 -59 34 -40 34 -36 77 8 86 20 4 30 13 34 32 4 19 16 32 40 41 19 7 36 19
39 27 3 7 13 13 23 13 18 1 123 94 136 121 20 40 74 106 89 108 4 1 35 -31 70
-71z m863 -474 c13 -5 14 -8 3 -15 -10 -7 -8 -9 7 -9 12 -1 36 -22 59 -52 l39
-51 -69 7 c-38 4 -92 8 -121 9 -45 1 -50 3 -40 16 15 20 98 101 102 101 2 0
11 -3 20 -6z m-140 -605 c12 -12 15 -19 7 -19 -8 0 -20 7 -28 15 -9 8 -22 15
-31 15 -11 0 -9 -6 8 -20 19 -16 20 -19 5 -13 -13 4 -17 3 -12 -5 4 -7 2 -12
-3 -12 -6 0 -11 -9 -11 -20 0 -11 -4 -20 -9 -20 -5 0 -12 -17 -15 -37 -3 -21
-7 -45 -9 -54 -2 -9 -17 -34 -35 -57 -18 -22 -32 -44 -32 -50 0 -5 -7 -12 -15
-16 -9 -3 -15 -18 -15 -35 0 -18 -6 -31 -17 -34 -10 -4 -29 -14 -43 -23 l-25
-16 25 23 c35 32 50 69 70 162 15 74 15 78 -2 94 -10 9 -18 22 -18 28 0 7 -9
24 -20 38 -11 14 -20 28 -20 32 0 10 76 -69 83 -86 8 -18 69 50 62 69 -3 8 0
10 7 6 8 -5 9 2 5 24 -4 20 -2 32 6 35 20 8 61 -4 82 -24z m-739 -464 c18 -10
36 -32 43 -51 7 -20 25 -40 42 -50 17 -8 48 -31 70 -51 22 -20 41 -34 42 -32
9 13 27 62 27 75 0 15 116 134 131 134 20 0 6 -25 -39 -68 -27 -26 -55 -56
-63 -66 -12 -17 -12 -19 1 -14 8 3 30 1 49 -4 29 -9 38 -6 73 22 22 18 41 30
44 27 2 -2 -2 -10 -11 -17 -8 -7 -15 -17 -15 -22 0 -23 -63 -87 -95 -98 -19
-6 -37 -20 -40 -31 -4 -10 -12 -20 -18 -20 -7 -1 -24 -3 -39 -5 -16 -1 -28 1
-28 5 0 7 -39 17 -92 25 -14 2 -20 16 -14 32 5 12 9 14 20 5 9 -7 27 -8 51 -3
l37 7 -51 48 c-27 26 -56 47 -64 47 -7 0 -33 9 -56 21 -37 17 -42 24 -37 44 5
18 -1 30 -21 50 -15 14 -31 25 -35 25 -5 0 -8 5 -8 11 0 6 15 2 33 -9 17 -10
46 -27 63 -37z m981 -489 c8 -15 87 -78 213 -170 41 -31 151 -132 244 -225
168 -168 170 -170 151 -191 -10 -11 -23 -20 -29 -20 -15 0 -126 89 -126 101 0
6 5 7 12 3 7 -4 8 -3 4 5 -4 6 -11 9 -15 6 -5 -2 -17 5 -27 18 -19 21 -19 21
1 7 19 -14 19 -14 6 3 -8 9 -16 15 -19 13 -8 -9 -56 21 -85 53 -15 16 -36 32
-46 36 -10 3 -23 17 -29 30 -6 14 -16 25 -21 25 -5 0 -31 30 -57 68 -26 37
-71 90 -100 117 -55 53 -124 135 -124 148 0 11 38 -11 47 -27z"/>
<path d="M585 2661 c-11 -5 -24 -6 -30 -4 -5 2 -2 -2 8 -10 15 -13 16 -15 2
-21 -8 -3 -16 -5 -18 -4 -1 1 -12 -4 -24 -11 -13 -6 -23 -8 -23 -3 0 5 -11 10
-25 10 -13 0 -24 -3 -23 -7 4 -34 -3 -43 -29 -37 -24 5 -26 4 -12 -6 9 -7 15
-21 13 -30 -1 -9 7 -27 18 -40 16 -18 21 -20 28 -8 5 8 12 11 16 7 4 -4 -1
-13 -11 -21 -12 -9 -15 -15 -6 -20 6 -4 45 26 96 75 l86 83 -25 13 c-16 8 -23
19 -20 28 7 17 7 17 -21 6z"/>
<path d="M3629 2605 c-19 -19 -37 -35 -41 -35 -4 0 -18 -9 -30 -21 -13 -11
-36 -30 -52 -43 l-30 -23 23 -24 c16 -16 25 -20 28 -11 3 6 18 12 34 12 19 0
28 4 24 11 -4 6 3 13 15 16 14 4 18 8 10 13 -7 4 7 10 33 14 25 4 52 15 60 24
15 16 14 21 -9 60 -14 23 -26 42 -28 42 -2 0 -18 -16 -37 -35z"/>
<path d="M3910 2200 c-28 -24 -31 -25 -24 -5 8 20 -2 19 -34 -4 -15 -10 -37
-22 -50 -25 -12 -4 -20 -11 -17 -16 3 -5 1 -11 -5 -15 -16 -10 -2 -25 16 -18
13 5 15 1 10 -14 -6 -18 -3 -20 21 -16 l28 4 -25 -15 c-14 -8 -34 -15 -44 -16
-18 0 -18 -1 -1 -20 18 -20 17 -20 -8 -20 -15 0 -27 -5 -27 -10 0 -6 -11 -15
-25 -20 -14 -5 -25 -14 -25 -20 0 -5 -7 -10 -15 -10 -9 0 -15 -9 -14 -22 0
-13 3 -17 6 -10 7 18 23 14 23 -6 0 -11 -11 -24 -25 -30 -14 -7 -25 -20 -25
-31 0 -11 -13 -27 -29 -37 -31 -18 -49 -64 -25 -64 8 0 14 -4 14 -10 0 -5 5
-10 11 -10 5 0 7 5 3 11 -5 8 1 10 19 5 14 -3 29 -2 32 4 12 19 23 10 30 -22
5 -21 4 -33 -4 -36 -6 -2 -11 -10 -11 -18 0 -8 -10 -14 -25 -14 -14 0 -25 5
-25 10 0 6 5 10 10 10 15 0 12 17 -4 23 -10 4 -13 1 -9 -9 3 -7 0 -14 -5 -14
-15 0 -42 29 -42 46 0 19 -16 18 -24 -1 -4 -12 -10 -13 -24 -6 -11 6 -24 6
-33 0 -22 -14 -35 -11 -68 17 -17 14 -32 23 -32 20 -2 -7 -6 -24 -8 -30 0 -3
-13 2 -28 10 -25 12 -28 12 -31 -1 -7 -29 -62 -3 -62 29 0 13 -4 15 -19 7 -18
-10 -31 -6 -31 10 0 5 6 6 14 3 8 -3 17 0 21 6 6 9 9 9 15 0 11 -17 100 6 100
26 0 8 3 13 8 13 26 -4 34 3 28 26 -5 19 -3 25 11 25 13 0 14 3 6 11 -9 9 -18
5 -38 -15 -31 -31 -33 -31 -31 -9 0 10 -6 18 -14 18 -9 0 -14 8 -12 20 2 11 3
28 3 37 0 10 4 20 10 23 5 4 9 1 9 -4 0 -6 5 -11 10 -11 14 0 12 13 -4 36 -13
17 -17 17 -37 5 -17 -10 -24 -10 -27 -2 -6 19 -17 12 -31 -20 -9 -21 -16 -27
-21 -19 -6 9 -9 8 -13 -6 -4 -16 -5 -17 -6 -1 0 9 -7 17 -13 17 -7 1 -2 9 11
20 12 11 27 17 32 14 12 -7 11 3 -2 27 -10 19 -11 20 -23 3 -7 -9 -19 -15 -27
-12 -13 4 -39 -13 -39 -26 0 -11 -34 -45 -40 -41 -4 2 -23 -11 -43 -29 -21
-19 -37 -32 -37 -29 0 2 -7 -3 -16 -11 -14 -15 -35 -21 -57 -17 -5 1 -11 -8
-14 -19 -3 -11 -9 -20 -14 -20 -5 0 -7 11 -3 25 3 14 2 25 -4 25 -5 0 -12 -10
-15 -21 -5 -19 -7 -20 -21 -7 -8 9 -12 24 -9 37 6 24 -9 28 -27 6 -7 -8 -16
-13 -20 -10 -5 3 -11 1 -15 -5 -8 -13 -35 -13 -35 0 0 6 9 10 20 10 24 0 27
25 4 34 -8 3 -13 2 -10 -3 5 -8 -21 -21 -49 -25 -9 -1 -11 -11 -6 -34 1 -7 26
-16 158 -57 29 -9 68 -17 87 -18 19 -1 32 -5 30 -8 -7 -12 44 -31 66 -24 15 5
20 4 16 -4 -4 -6 -2 -11 4 -11 6 0 10 8 8 18 -1 9 5 27 14 40 l16 23 10 -30
c9 -26 8 -31 -9 -36 -29 -10 -23 -21 21 -35 23 -8 45 -20 49 -28 5 -9 15 -12
24 -9 9 3 17 3 19 -1 6 -14 107 -54 122 -49 8 3 22 0 29 -7 7 -8 56 -28 108
-45 52 -18 102 -36 113 -42 10 -6 42 -18 70 -26 28 -8 69 -23 91 -33 94 -43
166 -70 186 -70 11 0 12 179 2 182 -33 6 -63 3 -67 -8 -8 -22 -25 -16 -19 6 3
11 0 20 -6 20 -6 0 -11 -5 -11 -10 0 -7 -6 -7 -20 0 -10 6 -23 10 -27 9 -4 -1
-24 0 -43 1 -26 2 -29 4 -12 7 19 4 21 7 11 19 -7 8 -7 14 -1 14 5 0 12 9 15
20 3 13 0 20 -9 20 -8 0 -14 5 -14 10 0 12 17 13 24 1 7 -10 46 -22 44 -12 0
3 0 13 1 21 1 11 3 12 9 3 6 -10 14 -9 36 2 21 11 32 12 42 4 7 -6 22 -8 34
-4 19 6 20 14 20 171 0 121 -3 164 -12 164 -9 0 -9 3 0 12 20 20 14 44 -14 57
-14 6 -30 9 -35 6 -5 -4 -9 2 -9 12 0 22 34 45 55 37 10 -4 15 0 15 15 0 18
-4 20 -27 15 -22 -4 -25 -3 -13 5 13 9 12 11 -6 11 -12 0 -31 -9 -44 -20z"/>
<path d="M1882 952 c7 -16 122 -202 198 -320 44 -68 80 -129 80 -136 0 -7 17
-37 38 -67 21 -30 83 -132 137 -226 53 -95 101 -173 106 -173 5 0 9 -7 9 -15
0 -8 9 -15 20 -15 17 0 20 7 20 41 0 30 -4 40 -13 36 -9 -3 -21 16 -37 57 -13
33 -29 66 -37 72 -7 6 -13 18 -13 27 0 9 -9 19 -20 22 -24 8 -70 65 -70 88 0
10 -4 17 -9 17 -4 0 -19 21 -32 48 -13 26 -35 58 -48 71 -16 15 -25 35 -25 56
0 25 -4 31 -16 28 -10 -3 -21 5 -28 19 -7 13 -23 41 -37 63 -14 22 -41 70 -60
106 -18 37 -41 69 -51 73 -12 4 -15 15 -12 37 3 22 1 29 -9 25 -7 -3 -13 1
-13 11 0 18 -48 63 -68 63 -8 0 -12 -4 -10 -8z"/>
<path d="M1205 896 c15 -20 36 -36 46 -36 10 0 20 -4 23 -9 3 -5 14 -7 24 -5
21 6 74 -42 165 -150 44 -53 65 -85 62 -97 -4 -11 1 -18 14 -22 23 -6 50 -55
53 -94 1 -15 10 -34 20 -41 10 -7 18 -19 18 -25 0 -19 38 -48 44 -34 2 7 5 -1
5 -16 1 -17 8 -30 19 -34 31 -12 42 -39 17 -45 -11 -2 -11 -8 5 -28 l20 -25
24 30 c23 28 25 28 26 8 0 -12 4 -23 9 -25 5 -1 3 -9 -5 -16 -12 -11 -14 -9
-14 10 -1 20 -2 21 -11 6 -5 -10 -17 -18 -24 -18 -8 0 -15 -5 -15 -11 0 -5 -5
-7 -12 -3 -7 5 -9 2 -5 -9 3 -9 -1 -18 -9 -21 -22 -8 -24 -8 -24 8 0 8 -5 18
-10 21 -7 4 -9 -2 -4 -19 4 -17 2 -26 -6 -26 -6 0 -9 -4 -6 -9 10 -15 -13 -66
-25 -54 -6 6 -4 22 6 47 9 21 11 35 6 31 -6 -3 -11 -2 -11 4 0 5 -7 11 -15 13
-10 2 -12 7 -5 18 8 12 12 12 18 2 11 -17 26 1 36 41 3 15 11 27 16 27 6 0 10
6 10 13 0 18 -83 77 -108 77 -25 0 -72 -61 -72 -94 0 -14 -4 -26 -10 -26 -5 0
-10 -7 -10 -15 0 -7 -8 -18 -17 -24 -15 -8 -16 -14 -6 -40 7 -18 7 -31 2 -31
-6 0 -7 -15 -3 -35 3 -19 2 -35 -2 -35 -5 0 -10 -18 -11 -40 -1 -44 20 -57 30
-18 5 18 8 19 21 9 9 -8 13 -17 10 -22 -2 -5 31 -8 76 -7 61 0 80 4 80 14 0 8
10 14 21 14 19 0 21 4 16 30 -5 24 -3 30 11 30 14 0 14 2 3 9 -8 5 -11 16 -7
26 5 14 9 15 20 6 12 -10 13 -8 9 8 -7 27 4 54 18 45 8 -4 7 -9 -2 -15 -10 -6
-6 -9 13 -9 22 0 25 4 21 23 -3 16 -2 18 5 8 8 -11 13 -9 26 11 13 19 23 24
51 22 23 -2 34 1 32 9 -1 7 5 12 13 11 8 0 24 19 36 42 11 24 17 41 13 39 -4
-3 -9 2 -12 10 -4 10 -1 12 11 8 10 -3 8 1 -6 12 -22 16 -22 18 -5 32 17 13
17 14 1 9 -21 -6 -22 3 -6 39 14 31 63 37 53 6 -3 -12 0 -21 10 -25 17 -6 21
-56 3 -56 -21 0 1 -13 27 -16 18 -2 25 2 25 14 0 17 -49 122 -61 132 -3 3 -10
16 -14 30 -4 14 -16 37 -26 52 -11 14 -19 31 -19 38 0 6 -9 23 -20 37 -11 14
-20 32 -20 40 0 8 -4 12 -8 9 -4 -2 -13 4 -20 15 -7 12 -8 19 -2 19 6 0 5 8
-2 20 -15 23 -33 27 -24 5 6 -16 -18 -45 -39 -45 -10 0 -13 -11 -10 -42 3 -28
-1 -51 -11 -66 -9 -13 -13 -30 -10 -38 3 -9 -1 -14 -14 -14 -11 0 -19 -5 -18
-12 2 -7 -3 -12 -9 -13 -7 0 -13 -4 -14 -10 0 -5 -7 -14 -15 -18 -18 -10 -18
-22 2 -42 9 -9 24 -13 35 -10 20 7 26 -9 8 -20 -6 -5 -4 -11 6 -19 15 -11 12
-12 -16 -10 -44 2 -44 1 -28 21 10 12 10 15 1 9 -8 -5 -17 2 -25 21 -13 29
-52 47 -41 18 7 -16 -4 -19 -22 -7 -7 4 -23 34 -36 67 -29 70 -55 110 -124
184 -112 123 -175 181 -194 181 -12 0 -39 9 -61 21 l-41 21 27 -36z"/>
<path d="M863 630 c-17 -29 -53 -42 -53 -18 0 27 -14 -6 -19 -45 -6 -41 -7
-42 -46 -45 -46 -4 -78 -28 -70 -52 6 -19 -29 -39 -58 -32 -14 3 -18 10 -14
28 3 20 2 22 -10 12 -8 -6 -12 -19 -10 -29 3 -10 -4 -31 -14 -48 -29 -47 -23
-60 10 -23 20 22 39 32 58 32 16 0 34 5 41 12 17 17 27 2 12 -17 -9 -11 -22
-14 -37 -10 -18 4 -23 1 -23 -12 0 -15 2 -16 10 -3 9 13 10 13 10 0 0 -27 -65
-94 -84 -87 -10 4 -14 12 -11 18 4 6 13 8 21 5 8 -3 14 -1 14 4 0 6 -6 10 -12
11 -7 0 -21 2 -32 4 -10 2 -25 1 -32 -2 -12 -4 -11 -8 3 -18 17 -13 17 -14 0
-20 -9 -4 -27 -5 -39 -1 -17 4 -30 -3 -50 -24 -18 -21 -36 -30 -57 -30 -21 0
-35 -7 -46 -23 -15 -23 -23 -25 -102 -18 -17 1 -16 16 2 35 8 8 15 19 15 25 0
6 -9 2 -20 -9 -18 -18 -40 -27 -40 -16 0 12 62 65 73 62 7 -1 9 -1 5 1 -15 9
-8 25 8 19 14 -5 15 -4 4 9 -7 8 -14 15 -15 15 -2 0 -22 -19 -44 -42 -43 -45
-56 -37 -20 11 17 24 19 32 9 47 -9 15 -10 16 -6 2 3 -11 -11 -34 -39 -65 -25
-26 -43 -54 -40 -62 6 -14 -11 -41 -26 -41 -5 0 -6 7 -2 16 5 14 3 15 -15 5
-17 -9 -19 -8 -15 9 3 11 10 18 15 17 6 -1 13 4 16 12 3 9 0 11 -9 6 -8 -5
-11 -4 -6 1 5 5 12 9 15 9 21 1 52 28 52 45 0 23 -18 27 -26 5 -4 -8 -10 -15
-16 -15 -14 0 1 42 25 68 24 26 16 29 -18 6 -24 -16 -25 -15 -42 20 -9 20 -20
36 -24 36 -4 0 -14 3 -23 6 -14 5 -16 -17 -16 -215 l0 -221 78 1 c66 1 73 3
49 12 -26 10 -40 33 -15 25 16 -6 49 23 41 35 -4 6 -1 7 7 2 8 -5 10 -20 7
-41 -3 -19 -4 -34 -3 -34 2 0 15 18 30 39 15 22 38 42 52 45 23 6 34 26 14 26
-5 0 -10 5 -10 10 0 16 15 12 40 -10 12 -11 26 -17 31 -15 4 3 23 -3 42 -14
19 -11 38 -17 41 -14 13 13 5 -24 -10 -45 -19 -27 0 -30 29 -5 18 17 19 17 32
0 6 -9 17 -17 24 -17 16 0 14 42 -3 66 -13 16 -13 22 -1 41 8 12 11 23 7 26
-4 2 -1 2 7 0 24 -6 151 37 151 51 0 21 71 166 81 166 5 0 9 9 9 20 0 11 4 20
10 20 11 0 44 60 33 60 -5 0 -1 6 8 13 9 7 31 39 50 72 18 33 36 62 40 65 9 7
23 60 16 60 -3 0 -14 -13 -24 -30z"/>
<path d="M1972 252 c-15 -23 -19 -37 -12 -42 6 -4 8 -14 4 -23 -3 -9 -2 -17 4
-17 6 0 13 6 15 13 3 6 6 2 6 -11 1 -13 -8 -32 -19 -44 -11 -12 -20 -29 -20
-37 0 -13 -2 -14 -9 -2 -7 11 -10 9 -16 -8 -3 -11 -11 -21 -17 -21 -6 0 -8 -3
-4 -7 4 -4 17 -8 29 -8 17 0 21 -5 20 -22 -3 -22 0 -23 96 -23 95 0 100 1 107
22 l7 23 10 -23 c13 -28 24 -28 30 1 l4 22 2 -22 c1 -19 7 -23 36 -23 l35 0
-20 40 c-11 22 -24 40 -28 40 -4 0 -14 16 -21 35 -7 19 -21 40 -31 45 -11 6
-26 32 -33 58 -14 45 -15 47 -47 44 -41 -5 -64 -26 -57 -52 3 -11 2 -20 -1
-20 -10 0 -34 58 -29 67 3 5 0 13 -7 19 -8 7 -17 1 -34 -24z"/>
</g>
</svg>
